<svg width="937" height="612" viewBox="0 0 937 612" fill="none" xmlns="http://www.w3.org/2000/svg">
<path fill-rule="evenodd" clip-rule="evenodd" d="M221 9.51116C221 9.51116 221.244 14.2872 227 18.5112C232.756 22.7352 256.463 38.0252 238 69.5112C229.581 82.1012 221.315 89.9112 197 107.511C176.45 122.389 85.17 169.262 51 212.511C39.237 226.429 2.929 266.3 0 341.511C0.533 357.611 -0.237 414.011 64 460.511C77.311 469.12 137.318 509.68 271 492.511C310.646 485.09 346.015 462.94 370 430.511C379.241 418.744 412.985 348.578 341 315.511C341 315.511 420.281 350.33 353 433.511C344.385 440.511 297.456 501.269 156 479.511C136.579 477.946 14.689 453.611 18 339.511C20.089 321.553 12.985 263.903 97 192.511C110.941 181.005 153.948 148.829 185 131.511C206.681 117.045 312.511 67.1942 254 10.5112C247.2 5.01116 227.689 -1.95484 218 0.511164C214.422 2.16216 216.244 9.97116 230 8.51116C235.607 8.68016 251.615 15.6772 254 30.5112C248.237 23.7542 244.222 13.5852 221 9.51116Z" fill="black"/>
<path fill-rule="evenodd" clip-rule="evenodd" d="M232.445 476.484C216.585 497.849 194.778 526.226 182 552.511C163.4 590.77 179.884 599.857 189 589.511C198.116 579.165 215.45 560.386 229 497.511C231.9 481.179 233.33 471.099 234.211 463.919C235.042 457.139 235.382 452.944 236 448.511C237.273 439.383 236.4 424.233 240 416.511C240 416.511 203.8 437.111 198 400.511C197.171 388.218 202.591 357.267 226 339.511C226 339.511 152.081 387.545 141 348.511C141 348.511 155.953 370.454 204 339.511C230.941 324.92 276.71 306.673 281 329.511C281.068 338.111 276.953 352.926 265 355.511C263.6 354.931 256.123 355.97 262 346.511C263.128 342.854 256.335 328.146 241 340.511C230.941 347.602 192.455 392.848 227 404.511C234.635 407.211 248.4 404.563 265 379.511C270.515 375.558 280.761 370.98 273 387.511C267.877 394.547 248.923 417.99 246 444.511C244.66 461.537 241.033 470.693 241 478.511C240.967 486.329 237.824 541.944 208 588.511C201.92 598.616 166.513 632.868 161 591.511C160.763 571.781 163.093 558.804 211 497.511C216.891 490.011 224.877 478.116 233.406 465.462" fill="black"/>
<path fill-rule="evenodd" clip-rule="evenodd" d="M240.1 463.297C242.067 460.397 243.727 457.785 245 455.511C255.672 436.463 271 414.511 271 414.511C264.285 419.326 254.478 432.142 244.191 446.821L229 472.511L230 478.511" fill="black"/>
<path fill-rule="evenodd" clip-rule="evenodd" d="M345 414.511C330.823 426.021 321.968 414.082 321 414.511C305.254 428.923 292.412 423.58 288 420.511C277.254 410.055 294 396.405 298 392.511C315.463 374.898 309 368.511 309 368.511C305.268 373.596 297 377.511 297 377.511C306.866 370.49 306 361.511 306 361.511C335.556 358.873 307.982 395.877 304 402.511C299.49 413.366 307.718 408.277 310 407.511C318.088 402.787 329 388.511 329 388.511C329.962 379.034 334.635 376.09 341 376.511C348.421 376.932 346 386.511 346 386.511C344.867 386.616 343.789 387.051 342.901 387.762C342.012 388.473 341.351 389.429 341 390.511C341 390.511 336.482 400.362 335 405.511C333.782 412.77 338.857 409.86 342 408.511C348.573 405.311 363.663 391.392 369 385.511C374.337 379.63 367.885 379.256 359 377.511C348.267 375.502 353.371 370.285 357 368.511C363.8 367.001 370 366.328 373 368.511C380.753 388.371 357.858 404.848 345 414.511ZM359 370.511C353.884 371.727 362 374.511 362 374.511C370.154 376.217 372 375.511 372 375.511C369.835 367.888 364.115 369.295 359 370.511Z" fill="black"/>
<path fill-rule="evenodd" clip-rule="evenodd" d="M373 377.511C373 377.511 379.684 379.411 375 387.511C370.316 395.611 358.837 411.093 366 413.511C366 413.511 368.337 415.025 366 418.511C366 418.511 355.823 418.438 357 411.511C358.177 406.958 367.462 393.281 371 388.511C373.219 385.324 373.948 383.239 372 381.511C372 381.511 371.417 378.039 373 377.511Z" fill="black"/>
<path fill-rule="evenodd" clip-rule="evenodd" d="M367 416.511C367 416.511 378.739 410.285 384 407.511L385 409.511C385 409.511 374.559 415.97 367 420.511C367 420.511 363.833 416.511 367 416.511Z" fill="black"/>
<path fill-rule="evenodd" clip-rule="evenodd" d="M401 374.511C401 374.511 407.239 375.451 403 387.511C401.136 392.447 399.573 393.868 396 397.511C392.427 401.154 387.128 408.702 394 406.511C399.714 403.431 405.078 399.743 410 395.511C410 395.511 411.406 387.724 413 381.511C414.594 375.298 413.989 372.362 423 372.511C425.414 373.187 427.53 374.294 427 376.511C426.47 378.728 424.28 383.894 423 387.511C421.72 391.128 419.5 401.298 428 399.511C434.386 397.988 434.864 399.102 437 395.511C437 395.511 437.253 404.217 425 406.511C420.134 406.432 417.906 409.698 412 397.511C412 397.511 389.559 419.451 384 409.511C383.719 405.375 387.5 397.324 393 392.511C395.594 389.545 398.822 384.822 398 381.511C397.178 378.2 395.986 375.83 401 374.511Z" fill="black"/>
<path fill-rule="evenodd" clip-rule="evenodd" d="M561.893 272.968C561.893 272.968 547.818 275.697 536.957 303.657C526.096 331.617 504.889 383.967 504.889 383.967C504.889 383.967 498.671 395.36 493.901 401.799C492.813 404.584 496.501 406.355 498.866 401.817C501.231 397.279 503.916 390.217 505.866 386.949C507.816 383.681 548.798 300.2 550.875 297.749C552.952 295.298 555.818 288.942 558.844 290.828C559.774 292.705 557.027 293.898 554.854 295.778C553.464 298.446 554.308 305.719 564.776 297.8C571.8 290.157 580.11 268.303 561.893 272.968Z" fill="black"/>
<path fill-rule="evenodd" clip-rule="evenodd" d="M515.839 252.411C515.839 252.411 499.597 256.211 488.215 289.196C476.833 322.181 454.505 383.984 454.505 383.984C454.505 383.984 447.783 397.505 442.524 405.203C441.384 408.489 445.756 410.383 448.297 405.003C450.838 399.623 453.652 391.292 455.779 387.403C457.906 383.514 501.832 284.646 504.138 281.703C506.444 278.76 509.492 271.245 513.094 273.303C514.258 275.445 511.118 276.954 508.676 279.235C507.176 282.399 508.483 290.817 520.3 281.145C528.123 271.95 536.809 246.175 515.839 252.411Z" fill="black"/>
<path fill-rule="evenodd" clip-rule="evenodd" d="M507 335.511C507 335.511 498.7 341.511 499 348.511C499 348.511 495.668 351.273 493 348.511C488.22 352.081 470.253 373.349 451 375.511C451 375.511 446.307 398.532 467 393.511C472.915 391.656 485.96 382.524 502 366.511C502 366.511 475.572 404.004 453 396.511C448.373 392.447 441.363 379.163 445 363.511C445 363.511 455.821 373.341 474 356.511C493.5 339.681 497 338.511 497 338.511C497 338.511 501.194 331.553 507 335.511Z" fill="black"/>
<path fill-rule="evenodd" clip-rule="evenodd" d="M552.143 334.474C552.143 334.474 545.786 341.174 547.223 347.327C547.223 347.327 544.732 350.327 541.907 348.327C538.267 352.288 525.894 374.127 509.196 379.256C509.196 379.256 511.27 401.242 532.996 391.511C532.996 391.511 522.634 399.705 512.996 395.511C508.218 392.682 501.263 384.099 501.874 369.624C501.874 369.624 513.102 376.524 526.402 358.585C540.871 340.42 543.779 338.8 543.779 338.8C543.779 338.8 546.339 331.936 552.143 334.474Z" fill="black"/>
<path fill-rule="evenodd" clip-rule="evenodd" d="M561 357.511C561 357.511 547.279 352.438 532 378.511C529.915 382.685 526.945 398.6 544 390.511C546.54 389.018 553.015 384.324 555 385.511L556 380.511C556 380.511 545.974 388.421 539 389.511C536.776 389.545 532.96 385.724 535 380.511C536.513 376.881 546.542 360.124 560 361.511C560 361.511 563.375 358.039 561 357.511Z" fill="black"/>
<path fill-rule="evenodd" clip-rule="evenodd" d="M663 266.511C653.055 303.097 628.083 336.251 611 361.511C593.917 386.771 582.694 396.141 576 399.511C545.172 414.042 552.929 383.211 558 367.511C563.071 351.811 557 349.511 557 349.511C563.07 340.804 566 351.511 566 351.511C571.737 368.354 563.166 381.366 562 385.511C560.834 399.418 573.608 389.34 581 382.511C591.556 374.102 609 345.511 609 345.511C602.584 302.796 629.677 270.544 645 259.511C663.718 246.034 663.709 260.794 663 266.511ZM616 333.511C616 333.511 644.2 306.311 652 268.511C652 268.511 620.571 293.635 616 333.511Z" fill="black"/>
<path fill-rule="evenodd" clip-rule="evenodd" d="M611 361.511C611 361.511 626.235 385.069 655 375.511C683.765 365.953 715.693 348.921 740 334.511C752.432 329.336 880.434 261.061 937 268.511C937 268.511 926.824 266.411 909 267.511C885.692 268.951 837.733 278.14 737 327.511C717.277 335.721 634 391.529 616 349.511C616 349.511 607.3 350.43 611 361.511Z" fill="black"/>
<path fill-rule="evenodd" clip-rule="evenodd" d="M522 426.511C522 426.511 522.378 424.328 536 422.511C549.622 420.694 600.128 415.328 609 412.511C609 412.511 597.128 418.078 553 423.511C543.122 424.944 524.75 430.761 522 426.511Z" fill="black"/>
<path fill-rule="evenodd" clip-rule="evenodd" d="M708.5 403.511C707.501 403.512 706.53 403.178 705.743 402.562C702.843 403.138 673.713 408.962 634 418.511C592.128 428.578 477.372 445.194 468 446.511C458.628 447.828 468 449.511 468 449.511L566 433.511L703 409.511L703.047 409.558C702.925 408.821 703.041 408.065 703.377 407.397C703.712 406.73 704.251 406.187 704.916 405.845C705.58 405.504 706.336 405.382 707.074 405.498C707.812 405.614 708.494 405.96 709.023 406.489C709.551 407.017 709.898 407.699 710.013 408.437C710.129 409.175 710.007 409.931 709.666 410.595C709.325 411.26 708.781 411.799 708.114 412.135C707.447 412.471 706.69 412.586 705.953 412.464L706 412.511L640 424.511L513 448.511C513 448.511 462.122 453.944 455 454.511C444.378 458.828 443.122 453.194 442 449.511C442.378 440.578 459.622 439.944 482 438.511C503.378 437.578 556.872 428.944 577 425.511C605.628 419.828 704 398.511 704 398.511H704.03C704.127 397.648 704.471 396.831 705.022 396.159C705.572 395.487 706.306 394.989 707.133 394.724C707.961 394.46 708.847 394.441 709.686 394.67C710.524 394.898 711.278 395.364 711.857 396.012C712.436 396.66 712.815 397.461 712.949 398.32C713.082 399.178 712.964 400.057 712.609 400.85C712.254 401.643 711.678 402.316 710.948 402.788C710.219 403.261 709.369 403.512 708.5 403.511ZM452 448.511C452 448.511 448.75 448.011 449 445.511C449 445.511 445.878 447.328 448 449.511C450.122 451.694 452.378 452.828 454 450.511L452 448.511Z" fill="black"/>
<path fill-rule="evenodd" clip-rule="evenodd" d="M724 397.511C724 397.511 737.378 393.578 743 391.511V397.511L728 406.511C728 406.511 722.878 412.078 721 406.511C721.122 403.944 719.878 402.078 725 402.511L728 399.511C728 399.511 721.5 402.511 724 397.511Z" fill="black"/>
<path d="M212 60.5112C216.418 60.5112 220 55.1386 220 48.5112C220 41.8838 216.418 36.5112 212 36.5112C207.582 36.5112 204 41.8838 204 48.5112C204 55.1386 207.582 60.5112 212 60.5112Z" fill="black"/>
</svg>
