<svg xmlns="http://www.w3.org/2000/svg" xmlns:xlink="http://www.w3.org/1999/xlink" width="976.25" height="611.438" viewBox="0 0 976.25 611.438">
  <defs>
    <style>
      .cls-1 {
        filter: url(#filter);
      }

      .cls-2 {
        fill-rule: evenodd;
      }
    </style>
    <filter id="filter" filterUnits="userSpaceOnUse">
      <feFlood result="flood" flood-color="#d4af37"/>
      <feComposite result="composite" operator="in" in2="SourceGraphic"/>
      <feBlend result="blend" in2="SourceGraphic"/>
    </filter>
  </defs>
  <g id="sign.svg" class="cls-1">
    <path class="cls-2" d="M230,18s0.244,4.776,6,9,29.463,19.514,11,51c-8.419,12.59-16.685,20.4-41,38C185.45,130.878,94.17,177.751,60,221,48.237,234.918,11.929,274.789,9,350c0.533,16.1-.237,72.5,64,119,13.311,8.609,73.318,49.169,207,32a159.677,159.677,0,0,0,99-62c9.241-11.767,42.985-81.933-29-115,0,0,79.281,34.819,12,118-8.615,7-55.544,67.758-197,46-19.421-1.565-141.311-25.9-138-140,2.089-17.958-5.015-75.608,79-147,13.941-11.506,56.948-43.682,88-61,21.681-14.466,127.511-64.317,69-121-6.8-5.5-26.311-12.466-36-10-3.578,1.651-1.756,9.46,12,8,5.607,0.169,21.615,7.166,24,22C257.237,32.243,253.222,22.074,230,18Z" transform="translate(-8.75 -8.5)"/>
    <path class="cls-2" d="M241.445,484.973C225.585,506.338,203.778,534.715,191,561c-18.6,38.259-2.116,47.346,7,37s26.45-29.125,40-92c2.9-16.332,4.33-26.412,5.211-33.592,0.831-6.78,1.171-10.975,1.789-15.408,1.273-9.128.4-24.278,4-32,0,0-36.2,20.6-42-16-0.829-12.293,4.591-43.244,28-61,0,0-73.919,48.034-85,9,0,0,14.953,21.943,63-9,26.941-14.591,72.71-32.838,77-10,0.068,8.6-4.047,23.415-16,26-1.4-.58-8.877.459-3-9,1.128-3.657-5.665-18.365-21-6-10.059,7.091-48.545,52.337-14,64,7.635,2.7,21.4.052,38-25,5.515-3.953,15.761-8.531,8,8-5.123,7.036-24.077,30.479-27,57-1.34,17.026-4.967,26.182-5,34s-3.176,63.433-33,110c-6.08,10.105-41.487,44.357-47,3-0.237-19.73,2.093-32.707,50-94,5.891-7.5,13.877-19.395,22.406-32.049" transform="translate(-8.75 -8.5)"/>
    <path id="Shape_2_copy" data-name="Shape 2 copy" class="cls-2" d="M249.1,471.786c1.967-2.9,3.627-5.512,4.9-7.786,10.672-19.048,26-41,26-41-6.715,4.815-16.522,17.631-26.809,32.31L238,481l1,6" transform="translate(-8.75 -8.5)"/>
    <path class="cls-2" d="M354,423c-14.177,11.51-23.032-.429-24,0-15.746,14.412-28.588,9.069-33,6-10.746-10.456,6-24.106,10-28,17.463-17.613,11-24,11-24-3.732,5.085-12,9-12,9,9.866-7.021,9-16,9-16,29.556-2.638,1.982,34.366-2,41-4.51,10.855,3.718,5.766,6,5,8.088-4.724,19-19,19-19,0.962-9.477,5.635-12.421,12-12,7.421,0.421,5,10,5,10a5.821,5.821,0,0,0-5,4s-4.518,9.851-6,15c-1.218,7.259,3.857,4.349,7,3,6.573-3.2,21.663-17.119,27-23s-1.115-6.255-10-8c-10.733-2.009-5.629-7.226-2-9,6.8-1.51,13-2.183,16,0C389.753,396.86,366.858,413.337,354,423Zm14-44c-5.116,1.216,3,4,3,4,8.154,1.706,10,1,10,1C378.835,376.377,373.115,377.784,368,379Z" transform="translate(-8.75 -8.5)"/>
    <path class="cls-2" d="M382,386s6.684,1.9,2,10-16.163,23.582-9,26c0,0,2.337,1.514,0,5,0,0-10.177-.073-9-7,1.177-4.553,10.462-18.23,14-23,2.219-3.187,2.948-5.272,1-7C381,390,380.417,386.528,382,386Z" transform="translate(-8.75 -8.5)"/>
    <path class="cls-2" d="M376,425s11.739-6.226,17-9l1,2s-10.441,6.459-18,11C376,429,372.833,425,376,425Z" transform="translate(-8.75 -8.5)"/>
    <path class="cls-2" d="M410,383s6.239,0.94,2,13c-1.864,4.936-3.427,6.357-7,10s-8.872,11.191-2,9a90.174,90.174,0,0,0,16-11s1.406-7.787,3-14,0.989-9.149,10-9c2.414,0.676,4.53,1.783,4,4s-2.72,7.383-4,11-3.5,13.787,5,12c6.386-1.523,6.864-.409,9-4,0,0,.253,8.706-12,11-4.866-.079-7.094,3.187-13-9,0,0-22.441,21.94-28,12-0.281-4.136,3.5-12.187,9-17,2.594-2.966,5.822-7.689,5-11S404.986,384.319,410,383Z" transform="translate(-8.75 -8.5)"/>
    <path id="Shape_7_copy_2" data-name="Shape 7 copy 2" class="cls-2" d="M570.893,281.457s-14.075,2.729-24.936,30.689-32.068,80.31-32.068,80.31-6.218,11.393-10.988,17.832c-1.088,2.785,2.6,4.556,4.965.018s5.05-11.6,7-14.868,42.932-86.749,45.009-89.2,4.943-8.807,7.969-6.921c0.93,1.877-1.817,3.07-3.99,4.95-1.39,2.668-.546,9.941,9.922,2.022C580.8,298.646,589.11,276.792,570.893,281.457Z" transform="translate(-8.75 -8.5)"/>
    <path id="Shape_7_copy" data-name="Shape 7 copy" class="cls-2" d="M524.839,260.9s-16.242,3.8-27.624,36.785-33.71,94.788-33.71,94.788-6.722,13.521-11.981,21.219c-1.14,3.286,3.232,5.18,5.773-.2s5.355-13.711,7.482-17.6,46.053-102.757,48.359-105.7,5.354-10.458,8.956-8.4c1.164,2.142-1.976,3.651-4.418,5.932-1.5,3.164-.193,11.582,11.624,1.91C537.123,280.439,545.809,254.664,524.839,260.9Z" transform="translate(-8.75 -8.5)"/>
    <path class="cls-2" d="M516,344s-8.3,6-8,13c0,0-3.332,2.762-6,0-4.78,3.57-22.747,24.838-42,27,0,0-4.693,23.021,16,18,5.915-1.855,18.96-10.987,35-27,0,0-26.428,37.493-49,30-4.627-4.064-11.637-17.348-8-33,0,0,10.821,9.83,29-7,19.5-16.83,23-18,23-18S510.194,340.042,516,344Z" transform="translate(-8.75 -8.5)"/>
    <path id="Shape_8_copy" data-name="Shape 8 copy" class="cls-2" d="M561.143,342.963s-6.357,6.7-4.92,12.853c0,0-2.491,3-5.316,1-3.64,3.961-16.013,25.8-32.711,30.929,0,0,2.074,21.986,23.8,12.255,0,0-10.362,8.194-20,4-4.778-2.829-11.733-11.412-11.122-25.887,0,0,11.228,6.9,24.528-11.039,14.469-18.165,17.377-19.785,17.377-19.785S555.339,340.425,561.143,342.963Z" transform="translate(-8.75 -8.5)"/>
    <path class="cls-2" d="M570,366s-13.721-5.073-29,21c-2.085,4.174-5.055,20.089,12,12,2.54-1.493,9.015-6.187,11-5l1-5s-10.026,7.91-17,9c-2.224.034-6.04-3.787-4-9,1.513-3.63,11.542-20.387,25-19C569,370,572.375,366.528,570,366Z" transform="translate(-8.75 -8.5)"/>
    <path class="cls-2" d="M672,275c-9.945,36.586-34.917,69.74-52,95s-28.306,34.63-35,38c-30.828,14.531-23.071-16.3-18-32s-1-18-1-18c6.07-8.707,9,2,9,2,5.737,16.843-2.834,29.855-4,34-1.166,13.907,11.608,3.829,19-3,10.556-8.409,28-37,28-37-6.416-42.715,20.677-74.967,36-86C672.718,254.523,672.709,269.283,672,275Zm-47,67s28.2-27.2,36-65C661,277,629.571,302.124,625,342Z" transform="translate(-8.75 -8.5)"/>
    <path class="cls-2" d="M620,370s15.235,23.558,44,14,60.693-26.59,85-41c12.432-5.175,140.434-73.45,197-66,0,0-10.176-2.1-28-1-23.308,1.44-71.267,10.629-172,60-19.723,8.21-103,64.018-121,22C625,358,616.3,358.919,620,370Z" transform="translate(-8.75 -8.5)"/>
    <ellipse cx="966.25" cy="269" rx="10" ry="7.5"/>
    <path class="cls-2" d="M531,435s0.378-2.183,14-4,64.128-7.183,73-10c0,0-11.872,5.567-56,11C552.122,433.433,533.75,439.25,531,435Z" transform="translate(-8.75 -8.5)"/>
    <path class="cls-2" d="M717.5,412a4.473,4.473,0,0,1-2.757-.949c-2.9.576-32.03,6.4-71.743,15.949-41.872,10.067-156.628,26.683-166,28s0,3,0,3l98-16,137-24,0.047,0.047a3.528,3.528,0,1,1,2.906,2.906L715,421l-66,12L522,457s-50.878,5.433-58,6c-10.622,4.317-11.878-1.317-13-5,0.378-8.933,17.622-9.567,40-11,21.378-.933,74.872-9.567,95-13,28.628-5.683,127-27,127-27h0.03A4.5,4.5,0,1,1,717.5,412ZM461,457s-3.25-.5-3-3c0,0-3.122,1.817-1,4s4.378,3.317,6,1Z" transform="translate(-8.75 -8.5)"/>
    <path class="cls-2" d="M733,406s13.378-3.933,19-6v6l-15,9s-5.122,5.567-7,0c0.122-2.567-1.122-4.433,4-4l3-3S730.5,411,733,406Z" transform="translate(-8.75 -8.5)"/>
    <ellipse cx="212.25" cy="48.5" rx="8" ry="12"/>
  </g>
</svg>
